<?xml version="1.0" encoding="UTF-8" standalone="no"?>
<!DOCTYPE svg PUBLIC "-//W3C//DTD SVG 1.1//EN" "http://www.w3.org/Graphics/SVG/1.1/DTD/svg11.dtd">
<!-- Created with Vectornator (http://vectornator.io/) -->
<svg height="100%" stroke-miterlimit="10" style="fill-rule:nonzero;clip-rule:evenodd;stroke-linecap:round;stroke-linejoin:round;" version="1.1" viewBox="0 0 68.6426 83.8524" width="100%" xml:space="preserve" xmlns="http://www.w3.org/2000/svg" xmlns:vectornator="http://vectornator.io" xmlns:xlink="http://www.w3.org/1999/xlink">
<defs>
<clipPath id="TextBounds">
<rect height="51.6514" width="37.9093" x="-164.816" y="-67.0128"/>
</clipPath>
<clipPath id="TextBounds_2">
<rect height="79.5712" width="151.904" x="272.877" y="195.452"/>
</clipPath>
<clipPath id="TextBounds_3">
<rect height="1" width="0" x="-17.0009" y="-29.4091"/>
</clipPath>
<clipPath id="TextBounds_4">
<rect height="1" width="0" x="-40.7402" y="3.21646"/>
</clipPath>
<clipPath id="TextBounds_5">
<rect height="94.9339" width="311.766" x="10.6402" y="0"/>
</clipPath>
</defs>
<clipPath id="ArtboardFrame">
<rect height="83.8524" width="68.6426" x="0" y="0"/>
</clipPath>
<g clip-path="url(#ArtboardFrame)" id="Layer-2" vectornator:layerName="Layer 2">
<g fill="#3e68ff" opacity="1" stroke="none">
<path clip-path="url(#TextBounds)" d="M-138.298-58.5332L-138.298-54.9592L-148.407-54.9592L-148.407-28.532L-152.533-28.532L-152.533-54.9592L-162.642-54.9592L-162.642-58.5332L-138.298-58.5332Z"/>
<path clip-path="url(#TextBounds)" d="M-151.512-0.569294C-149.959-0.569294-148.455-0.205085-146.998 0.523333C-145.541 1.25175-144.432 2.19461-143.669 3.35191C-142.934 4.45475-142.444 5.74139-142.199 7.21184C-141.981 8.21937-141.872 9.82598-141.872 12.0317L-157.904 12.0317C-157.836 14.2509-157.312 16.0311-156.331 17.3723C-155.351 18.7134-153.833 19.3839-151.777 19.3839C-149.857 19.3839-148.326 18.7508-147.182 17.4846C-146.528 16.7494-146.066 15.8984-145.793 14.9317L-142.178 14.9317C-142.274 15.735-142.59 16.6302-143.128 17.6173C-143.666 18.6044-144.268 19.4111-144.935 20.0374C-146.052 21.1267-147.434 21.8619-149.081 22.2431C-149.966 22.461-150.967 22.5699-152.083 22.5699C-154.807 22.5699-157.114 21.5794-159.007 19.5984C-160.899 17.6173-161.846 14.8432-161.846 11.276C-161.846 7.76326-160.893 4.91086-158.986 2.7188C-157.08 0.526736-154.589-0.569294-151.512-0.569294ZM-145.65 9.11118C-145.8 7.51819-146.147 6.24516-146.692 5.29209C-147.699 3.5221-149.381 2.63711-151.736 2.63711C-153.425 2.63711-154.841 3.24639-155.984 4.46496C-157.128 5.68353-157.734 7.23227-157.802 9.11118L-145.65 9.11118Z"/>
<path clip-path="url(#TextBounds)" d="M-162.703 50.2466L-157.945 50.2466L-152.921 57.9461L-147.835 50.2466L-143.363 50.3487L-150.736 60.9074L-143.036 72.1196L-147.733 72.1196L-153.166 63.9096L-158.435 72.1196L-163.091 72.1196L-155.392 60.9074L-162.703 50.2466Z"/>
<path clip-path="url(#TextBounds)" d="M-138.972 44.1402L-135.255 44.1402L-135.255 50.2466L-131.763 50.2466L-131.763 53.2488L-135.255 53.2488L-135.255 67.5244C-135.255 68.2869-134.996 68.7975-134.479 69.0562C-134.193 69.2059-133.716 69.2808-133.049 69.2808C-132.872 69.2808-132.682 69.2774-132.477 69.2706C-132.273 69.2638-132.035 69.2468-131.763 69.2195L-131.763 72.1196C-132.185 72.2421-132.624 72.3306-133.08 72.3851C-133.536 72.4396-134.03 72.4668-134.561 72.4668C-136.276 72.4668-137.44 72.0277-138.053 71.1495C-138.666 70.2713-138.972 69.131-138.972 67.7287L-138.972 53.2488L-141.933 53.2488L-141.933 50.2466L-138.972 50.2466L-138.972 44.1402Z"/>
</g>
<path d="M-90.3673 94.7237L-90.3673 94.7237C-90.2443 94.7237-90.1445 94.8235-90.1445 94.9465L-90.1445 98.5121C-90.1445 98.6352-90.2443 98.735-90.3673 98.735L-90.3673 98.735C-90.4904 98.735-90.5902 98.6352-90.5902 98.5121L-90.5902 94.9465C-90.5902 94.8235-90.4904 94.7237-90.3673 94.7237Z" fill="#3e68ff" fill-rule="nonzero" opacity="1" stroke="none"/>
<path d="M9.08902 21.2409L32.1581 4.16977L61.0714 22.7788L61.379 66.1487L53.5355 76.4529L33.8499 83.6812L9.85799 62.3039L9.08902 21.2409Z" fill="#3e68ff" fill-rule="nonzero" opacity="1" stroke="none"/>
<g fill="#3e68ff" opacity="1" stroke="none">
<path clip-path="url(#TextBounds_2)" d="M298.684 248.014C298.684 251.418 299.842 253.121 302.156 253.121C302.52 253.121 303.064 253.064 303.791 252.95C304.517 252.837 305.061 252.78 305.425 252.78C306.015 252.78 306.525 252.996 306.957 253.427C307.388 253.858 307.603 254.369 307.603 254.959C307.603 256.548 306.582 257.342 304.539 257.342C304.449 257.342 304.313 257.342 304.131 257.342C303.904 257.296 303.745 257.274 303.654 257.274L300.318 256.797C299.047 256.616 297.617 256.525 296.029 256.525C294.304 256.525 292.783 256.616 291.467 256.797L288.063 257.274C287.927 257.274 287.768 257.296 287.586 257.342C287.359 257.342 287.2 257.342 287.109 257.342C285.112 257.342 284.114 256.548 284.114 254.959C284.114 253.506 284.84 252.78 286.292 252.78C286.656 252.78 287.2 252.837 287.927 252.95C288.653 253.064 289.197 253.121 289.561 253.121C291.83 253.121 292.965 251.418 292.965 248.014L292.965 243.248L293.033 237.256L293.033 231.469L292.965 220.371C292.965 217.148 291.308 215.537 287.995 215.537L285.884 215.537C282.616 215.537 280.982 217.126 280.982 220.303C280.982 221.438 281.004 222.209 281.05 222.618L281.322 225.137C281.368 225.546 281.39 226.113 281.39 226.839C281.39 229.699 280.505 231.129 278.735 231.129C277.055 231.129 276.216 230.085 276.216 227.997C276.216 227.407 276.261 226.385 276.352 224.933C276.488 222.754 276.556 221.37 276.556 220.78C276.556 219.645 276.511 218.465 276.42 217.239C276.238 214.833 276.148 213.812 276.148 214.175C276.148 212.269 277.01 211.316 278.735 211.316C279.37 211.316 280.846 211.384 283.16 211.52C283.387 211.52 285.248 211.565 288.744 211.656L296.505 211.792C297.413 211.792 299.842 211.747 303.791 211.656C304.653 211.656 306.128 211.588 308.216 211.452C310.077 211.316 311.53 211.248 312.574 211.248C314.843 211.248 315.978 212.178 315.978 214.039L315.978 214.175C315.978 214.629 315.921 215.469 315.808 216.695C315.694 217.92 315.569 219.236 315.433 220.643L315.433 221.392C315.433 222.073 315.501 223.14 315.638 224.592C315.819 226.499 315.91 227.679 315.91 228.133C315.91 229.994 315.025 230.924 313.254 230.924C311.53 230.924 310.667 229.79 310.667 227.52C310.667 226.703 310.735 225.489 310.871 223.878C311.008 222.266 311.076 221.052 311.076 220.235C311.076 217.103 309.283 215.537 305.697 215.537L303.791 215.537C302.111 215.537 300.908 215.889 300.182 216.592C299.456 217.296 299.047 218.465 298.956 220.099L298.752 224.865L298.684 248.014Z"/>
<path clip-path="url(#TextBounds_2)" d="M350.293 236.984C350.293 238.709 350.18 239.764 349.953 240.15C349.726 240.536 349.068 240.729 347.978 240.729L326.327 240.729C325.737 240.729 325.351 240.808 325.17 240.967C324.988 241.126 324.897 241.387 324.897 241.75C324.897 245.154 325.918 247.991 327.961 250.261C330.004 252.53 332.546 253.665 335.587 253.665C337.584 253.665 339.411 253.121 341.068 252.031C342.724 250.942 343.802 249.557 344.302 247.878L344.914 245.903C345.232 244.814 345.981 244.269 347.161 244.269C348.841 244.269 349.681 245.132 349.681 246.857C349.681 249.807 348.183 252.428 345.187 254.721C342.191 257.013 338.787 258.159 334.974 258.159C330.208 258.159 326.418 256.559 323.604 253.359C320.789 250.159 319.382 245.858 319.382 240.457C319.382 234.919 320.88 230.425 323.876 226.975C326.872 223.526 330.775 221.801 335.587 221.801C339.853 221.801 343.371 223.231 346.14 226.09C348.909 228.95 350.293 232.581 350.293 236.984ZM325.578 235.214C325.578 235.849 326.077 236.167 327.076 236.167L343.349 236.167C344.302 236.167 344.778 235.849 344.778 235.214C344.778 232.808 343.871 230.72 342.055 228.95C340.239 227.18 338.106 226.295 335.655 226.295C333.113 226.295 330.798 227.214 328.71 229.052C326.622 230.89 325.578 232.944 325.578 235.214Z"/>
<path clip-path="url(#TextBounds_2)" d="M361.459 250.193L370.923 239.367L361.459 228.201C360.824 227.475 360.052 227.112 359.144 227.112C358.781 227.112 358.509 227.134 358.327 227.18L357.17 227.452C356.988 227.497 356.671 227.52 356.217 227.52C354.719 227.52 353.97 226.794 353.97 225.341C353.97 223.798 354.9 223.027 356.761 223.027L356.966 223.027C357.011 223.027 358.146 223.117 360.37 223.299C361.505 223.39 362.458 223.435 363.23 223.435C364.001 223.435 365.113 223.367 366.566 223.231C368.018 223.095 369.108 223.027 369.834 223.027C371.695 223.027 372.625 223.798 372.625 225.341C372.625 226.794 371.763 227.52 370.038 227.52C369.675 227.52 369.335 227.475 369.017 227.384L367.996 227.112L367.587 227.112C367.406 227.112 367.315 227.157 367.315 227.248C367.406 227.52 367.61 227.838 367.928 228.201L374.123 235.691L380.592 228.201C381 227.747 381.204 227.429 381.204 227.248C381.159 227.157 381.045 227.112 380.864 227.112C380.637 227.112 380.262 227.18 379.74 227.316C379.218 227.452 378.821 227.52 378.549 227.52C376.915 227.52 376.098 226.749 376.098 225.205C376.098 223.707 377.051 222.958 378.957 222.958C378.867 222.958 380.07 223.072 382.566 223.299C383.565 223.39 384.631 223.435 385.766 223.435C386.901 223.435 388.104 223.367 389.375 223.231C390.646 223.095 391.553 223.027 392.098 223.027C394.095 223.027 395.094 223.798 395.094 225.341C395.094 226.839 394.322 227.588 392.779 227.588C392.416 227.588 391.894 227.497 391.213 227.316C390.532 227.134 390.01 227.044 389.647 227.044C388.558 227.044 387.06 228.133 385.153 230.312L377.255 239.299L387.877 251.827C388.512 252.599 389.284 252.984 390.192 252.984C390.464 252.984 390.884 252.939 391.451 252.848C392.019 252.757 392.439 252.712 392.711 252.712C394.345 252.712 395.162 253.438 395.162 254.891C395.162 256.479 394.209 257.274 392.302 257.274L391.758 257.274L389.102 256.933C388.376 256.843 387.287 256.797 385.834 256.797C384.609 256.797 383.383 256.865 382.158 257.001L379.706 257.274L378.957 257.274C376.824 257.274 375.757 256.548 375.757 255.095C375.757 253.506 376.597 252.712 378.277 252.712C378.867 252.712 379.706 252.803 380.796 252.984C380.887 253.03 381.045 253.052 381.272 253.052C381.726 253.052 381.953 252.871 381.953 252.508C381.953 252.372 381.885 252.235 381.749 252.099L381.545 251.827L373.987 242.976L366.293 251.827C365.976 252.19 365.817 252.462 365.817 252.644C365.817 252.871 366.044 252.984 366.498 252.984C366.815 252.984 367.292 252.939 367.928 252.848C368.563 252.757 369.04 252.712 369.357 252.712C371.309 252.712 372.285 253.506 372.285 255.095C372.285 256.548 371.309 257.274 369.357 257.274L368.404 257.274L365.681 257.001C364.319 256.865 363.116 256.797 362.072 256.797C361.255 256.797 360.279 256.865 359.144 257.001C357.601 257.183 356.466 257.274 355.74 257.274C353.834 257.274 352.881 256.502 352.881 254.959C352.881 253.461 353.698 252.712 355.332 252.712C355.604 252.712 356.013 252.746 356.557 252.814C357.102 252.882 357.51 252.916 357.783 252.916C358.645 252.916 359.871 252.008 361.459 250.193Z"/>
<path clip-path="url(#TextBounds_2)" d="M417.426 247.606L417.562 243.248C417.608 241.387 418.425 240.457 420.013 240.457C421.602 240.457 422.396 241.501 422.396 243.588C422.396 248.536 421.761 251.986 420.49 253.938C418.765 256.57 415.928 257.887 411.979 257.887C408.348 257.887 405.761 256.729 404.217 254.414C403.083 252.735 402.515 249.875 402.515 245.835L402.515 229.495C402.515 228.541 402.084 228.065 401.222 228.065L399.043 228.065C398.317 228.065 397.715 227.827 397.239 227.35C396.762 226.873 396.524 226.295 396.524 225.614C396.524 224.978 396.762 224.411 397.239 223.912C397.715 223.412 398.249 223.163 398.839 223.163L401.494 223.163C402.266 223.163 402.651 222.731 402.651 221.869L402.651 214.856C402.651 213.131 403.537 212.269 405.307 212.269C406.941 212.269 407.758 213.131 407.758 214.856L407.758 222.141C407.758 222.822 408.166 223.163 408.983 223.163L416.405 223.163C418.13 223.163 418.992 223.957 418.992 225.546C418.992 227.225 418.062 228.065 416.201 228.065L408.711 228.065C408.076 228.065 407.758 228.541 407.758 229.495L407.758 246.244C407.758 251.01 409.324 253.393 412.456 253.393C415.633 253.393 417.29 251.464 417.426 247.606Z"/>
</g>
<g fill="#3e68ff" opacity="1" stroke="none"/>
<g fill="#3e68ff" opacity="1" stroke="none"/>
</g>
<g id="Layer-1" vectornator:layerName="Layer 1">
<path clip-path="url(#TextBounds_5)" d="M54.1493 38.4005C54.1493 49.0219 50.4954 56.5795 43.1875 61.0731L43.1875 66.2477C43.1875 69.4704 44.5038 71.0818 47.1364 71.0818C48.6343 71.0818 49.6556 70.696 50.2003 69.9243C50.5634 69.3796 50.7904 68.3357 50.8812 66.7924C50.972 64.659 51.789 63.5923 53.3323 63.5923C55.1025 63.5923 55.9876 64.7044 55.9876 66.9285C55.9876 69.425 55.1819 71.4336 53.5706 72.9542C51.9592 74.4747 49.8599 75.235 47.2726 75.235C41.5534 75.235 38.6938 72.6024 38.6938 67.3371L38.6938 62.571C37.2867 62.8888 35.8796 63.0476 34.4725 63.0476C28.4355 63.0476 23.6354 60.8916 20.0723 56.5795C16.5091 52.2674 14.7275 46.4574 14.7275 39.1495C14.7275 31.5238 16.4977 25.5323 20.0382 21.1747C23.5787 16.8172 28.4582 14.6385 34.6767 14.6385C40.6683 14.6385 45.4116 16.7719 48.9067 21.0386C52.4018 25.3053 54.1493 31.0926 54.1493 38.4005ZM43.2555 51.9496L43.2555 55.5582C44.5719 53.9241 45.5251 52.3581 46.1152 50.8602C47.4769 47.229 48.1577 43.0304 48.1577 38.2643C48.1577 32.3182 46.9776 27.711 44.6173 24.4429C42.257 21.1747 38.9434 19.5407 34.6767 19.5407C30.2284 19.5407 26.756 21.2428 24.2596 24.6471C21.7631 28.0514 20.5148 32.8175 20.5148 38.9452C20.5148 47.4786 22.6028 53.4021 26.7787 56.7156C25.5532 54.7185 24.9404 52.812 24.9404 50.9964C24.9404 48.7723 25.8596 46.8999 27.6979 45.3793C29.5362 43.8587 31.7944 43.0984 34.4725 43.0984C37.2413 43.0984 39.3973 43.8814 40.9406 45.4474C42.4839 47.0134 43.2555 49.1808 43.2555 51.9496ZM34.5405 58.622C35.6753 58.622 37.0824 58.3951 38.7619 57.9412L38.7619 52.6986C38.7619 49.1127 37.2413 47.3198 34.2001 47.3198C32.566 47.3198 31.227 47.8191 30.183 48.8177C29.139 49.8163 28.6171 51.1099 28.6171 52.6986C28.6171 54.4688 29.1617 55.8986 30.2511 56.988C31.3405 58.0774 32.7703 58.622 34.5405 58.622Z" fill="#ffffff" opacity="1" stroke="none"/>
</g>
</svg>
