<?xml version="1.0" encoding="UTF-8" standalone="no"?>
<!DOCTYPE svg PUBLIC "-//W3C//DTD SVG 1.1//EN" "http://www.w3.org/Graphics/SVG/1.1/DTD/svg11.dtd">
<!-- Created with Vectornator (http://vectornator.io/) -->
<svg height="100%" stroke-miterlimit="10" style="fill-rule:nonzero;clip-rule:evenodd;stroke-linecap:round;stroke-linejoin:round;" version="1.1" viewBox="0 0 198.653 79.4755" width="100%" xml:space="preserve" xmlns="http://www.w3.org/2000/svg" xmlns:vectornator="http://vectornator.io" xmlns:xlink="http://www.w3.org/1999/xlink">
<defs>
<clipPath id="TextBounds">
<rect height="94.9339" width="311.766" x="4.85852" y="-5.69835"/>
</clipPath>
<clipPath id="TextBounds_2">
<rect height="62.4821" width="144.141" x="54.512" y="11.9869"/>
</clipPath>
<clipPath id="TextBounds_3">
<rect height="42.0829" width="69.109" x="187.81" y="117.005"/>
</clipPath>
<clipPath id="TextBounds_4">
<rect height="1.03406" width="25.9992" x="122.96" y="91.3664"/>
</clipPath>
<clipPath id="TextBounds_5">
<rect height="1.59624" width="26.1428" x="140.919" y="4.91493"/>
</clipPath>
</defs>
<g id="Layer-2" vectornator:layerName="Layer 2">
<path d="M2.92886 17.775L27.0137 0.100843L54.8637 17.601L54.7857 60.6375L47.4196 70.8326L27.0137 78.232L2.98625 60.6375L2.92886 17.775Z" fill="#3e68ff" fill-rule="nonzero" opacity="1" stroke="none"/>
</g>
<g id="Layer-1" vectornator:layerName="Layer 1">
<path clip-path="url(#TextBounds)" d="M48.3676 32.7022C48.3676 43.3236 44.7136 50.8811 37.4057 55.3748L37.4057 60.5493C37.4057 63.7721 38.7221 65.3834 41.3547 65.3834C42.8526 65.3834 43.8739 64.9976 44.4186 64.226C44.7817 63.6813 45.0087 62.6373 45.0995 61.094C45.1902 58.9607 46.0073 57.894 47.5505 57.894C49.3208 57.894 50.2059 59.0061 50.2059 61.2302C50.2059 63.7267 49.4002 65.7352 47.7889 67.2558C46.1775 68.7764 44.0782 69.5367 41.4909 69.5367C35.7717 69.5367 32.9121 66.904 32.9121 61.6387L32.9121 56.8727C31.5049 57.1904 30.0978 57.3493 28.6907 57.3493C22.6538 57.3493 17.8537 55.1932 14.2905 50.8811C10.7274 46.569 8.94579 40.759 8.94579 33.4511C8.94579 25.8255 10.716 19.8339 14.2565 15.4764C17.797 11.1189 22.6765 8.94014 28.895 8.94014C34.8866 8.94014 39.6299 11.0735 43.125 15.3402C46.62 19.6069 48.3676 25.3943 48.3676 32.7022ZM37.4738 46.2513L37.4738 49.8598C38.7902 48.2258 39.7434 46.6598 40.3334 45.1619C41.6952 41.5306 42.376 37.332 42.376 32.566C42.376 26.6198 41.1959 22.0127 38.8355 18.7445C36.4752 15.4764 33.1617 13.8423 28.895 13.8423C24.4467 13.8423 20.9743 15.5445 18.4778 18.9488C15.9813 22.3531 14.7331 27.1191 14.7331 33.2468C14.7331 41.7803 16.8211 47.7038 20.997 51.0173C19.7715 49.0201 19.1587 47.1137 19.1587 45.2981C19.1587 43.0739 20.0778 41.2016 21.9162 39.681C23.7545 38.1604 26.0127 37.4001 28.6907 37.4001C31.4596 37.4001 33.6156 38.1831 35.1589 39.7491C36.7022 41.315 37.4738 43.4824 37.4738 46.2513ZM28.7588 52.9237C29.8936 52.9237 31.3007 52.6967 32.9801 52.2428L32.9801 47.0002C32.9801 43.4144 31.4596 41.6214 28.4184 41.6214C26.7843 41.6214 25.4453 42.1207 24.4013 43.1193C23.3573 44.1179 22.8353 45.4115 22.8353 47.0002C22.8353 48.7705 23.38 50.2003 24.4694 51.2896C25.5588 52.379 26.9886 52.9237 28.7588 52.9237Z" fill="#ffffff" opacity="1" stroke="none"/>
</g>
<g id="Layer-3" vectornator:layerName="Layer 3">
<g fill="#f8f8f8" opacity="1" stroke="none">
<path clip-path="url(#TextBounds_2)" d="M76.9157 46.883C75.3124 48.8897 73.7742 50.3339 72.3012 51.2155C70.8282 52.0972 69.2316 52.5396 67.5113 52.5426C65.9989 52.5453 64.6419 52.2122 63.4403 51.5432C62.2387 50.8742 61.2966 49.9543 60.6139 48.7834C59.9123 47.5748 59.5595 45.8362 59.5555 43.5677L59.5395 34.5786C59.5367 33.0095 59.2984 31.8851 58.8246 31.2054C58.3508 30.5257 57.4804 30.0924 56.2135 29.9056L56.2124 29.2818L65.3414 28.2164L65.3689 43.7275C65.3726 45.807 65.5074 47.234 65.7735 48.0086C66.0586 48.8777 66.5088 49.5528 67.124 50.0338C67.7393 50.5147 68.4533 50.7545 69.2662 50.753C70.4005 50.751 71.5105 50.3899 72.5962 49.6696C73.682 48.9493 74.97 47.7088 76.4603 45.948L76.9131 45.4084L76.8938 34.5478C76.891 32.9787 76.6527 31.8543 76.1789 31.1746C75.7051 30.4949 74.8347 30.0616 73.5678 29.8748L73.5667 29.251L82.6956 28.1856L82.728 46.4473C82.7308 48.0164 82.9644 49.1313 83.4287 49.7921C83.8931 50.453 84.7682 50.8957 86.0541 51.1203L86.0554 51.8859L76.9246 51.9021L76.9157 46.883ZM77.8865 50.6527L82.0833 50.6452L81.4302 50.136C81.4302 50.136 81.416 50.1218 81.3876 50.0935C81.3592 50.0652 81.3355 50.0511 81.3166 50.0511L80.9475 49.7682C80.6634 49.4851 80.521 49.1262 80.5202 48.6914L80.5192 48.1243L80.4903 47.8407L80.4576 29.3806L75.808 29.8992L76.9437 30.6912C76.9626 30.6912 76.9768 30.6959 76.9862 30.7053C76.9957 30.7147 77.0194 30.7383 77.0573 30.7761L77.4264 31.059C77.5967 31.1721 77.7105 31.342 77.7676 31.5688C77.8247 31.7956 77.8539 32.2681 77.8552 32.9865L77.8865 50.6527ZM63.1033 29.383L58.4537 29.93L59.5894 30.722C59.6083 30.722 59.6225 30.7267 59.632 30.7361C59.6414 30.7455 59.6651 30.7691 59.703 30.8069L60.0721 31.0898C60.2425 31.2029 60.3562 31.3728 60.4133 31.5996C60.4704 31.8263 60.4996 32.2989 60.5009 33.0173L60.5196 43.5943C60.522 44.9365 60.6469 46.0469 60.8942 46.9256C61.1415 47.8042 61.5399 48.5927 62.0894 49.2912C62.7903 50.1029 63.5523 50.7254 64.3754 51.1587C65.1985 51.5921 65.9976 51.808 66.7727 51.8067C66.8294 51.8066 67.1035 51.7872 67.5949 51.7485C66.4604 51.5804 65.576 51.218 64.9417 50.6615C64.3074 50.1049 63.8475 49.2834 63.562 48.1969C63.2765 47.1104 63.1321 45.6314 63.1288 43.7598L63.1033 29.383Z"/>
<path clip-path="url(#TextBounds_2)" d="M104.604 49.2158C102.282 51.186 99.7886 52.1734 97.1231 52.1782C94.9869 52.182 93.2798 51.632 92.0018 50.5284C90.7238 49.4247 90.0832 47.975 90.08 46.179C90.0755 43.6269 91.3196 41.6209 93.8124 40.1608C96.3052 38.7007 99.8956 37.872 104.584 37.6746L104.582 36.8807L104.581 36.4837C104.579 35.0091 104.511 33.8041 104.377 32.8685C104.243 31.933 104.052 31.2291 103.806 30.757C103.521 30.2092 103.119 29.7704 102.598 29.4405C102.078 29.1106 101.515 28.9462 100.91 28.9473C100.022 28.9489 99.3226 29.2384 98.8132 29.8159C98.3038 30.3934 97.984 31.2872 97.8538 32.4973C97.7047 33.6885 97.4604 34.4971 97.1208 34.9231C96.7813 35.349 96.1957 35.5628 95.3639 35.5642C94.7211 35.5654 94.1819 35.3395 93.7463 34.8865C93.3107 34.4336 93.0923 33.848 93.091 33.1296C93.0893 32.1655 93.4375 31.2905 94.1355 30.5047C94.8336 29.719 95.8014 29.0981 97.0388 28.6422C98.2762 28.1863 99.6322 27.9571 101.107 27.9544C103.016 27.9511 104.69 28.3309 106.128 29.094C107.566 29.8571 108.636 30.9185 109.338 32.2784C109.717 32.9772 109.988 33.7613 110.15 34.6306C110.312 35.4999 110.395 36.7002 110.398 38.2315L110.412 46.3982C110.415 47.9672 110.649 49.0822 111.113 49.743C111.577 50.4039 112.452 50.8466 113.738 51.0711L113.74 51.8368L104.609 51.853L104.604 49.2158ZM104.602 47.9681L104.585 38.5821C102.752 38.8689 101.179 39.3443 99.8663 40.0083C98.5536 40.6722 97.5484 41.5153 96.8508 42.5374C96.1531 43.5594 95.8054 44.6849 95.8076 45.9137C95.8098 47.1614 96.185 48.1957 96.9332 49.0167C97.6814 49.8378 98.6226 50.2473 99.7568 50.2452C101.156 50.2428 102.771 49.4837 104.602 47.9681ZM105.571 50.6036L109.767 50.5961L109.114 50.0869C109.114 50.0869 109.1 50.0727 109.072 50.0444C109.043 50.0161 109.02 50.002 109.001 50.002L108.632 49.7191C108.348 49.436 108.205 49.0771 108.204 48.6423L108.203 48.0751L108.174 47.7916L108.157 38.1504C108.153 35.5226 107.847 33.5571 107.239 32.2538C106.386 30.5161 105.051 29.4031 103.235 28.9148C104.447 29.7633 105.158 31.1138 105.369 32.966C105.485 34.1001 105.544 35.8581 105.549 38.2401L105.571 50.6036ZM98.3694 51.382C95.1545 50.726 93.5445 48.9708 93.5394 46.1162C93.5361 44.2636 94.28 42.6743 95.7711 41.3483C96.4317 40.7611 97.7065 40.0121 99.5953 39.1013C97.3086 39.5402 95.5327 40.1388 94.2674 40.8973C92.1147 42.2244 91.0402 43.975 91.0441 46.149C91.0468 47.718 91.621 48.9883 92.7664 49.9599C93.9118 50.9314 95.392 51.4156 97.2068 51.4124C97.6416 51.4116 98.0291 51.4015 98.3694 51.382ZM98.3296 28.9802C97.0069 29.3228 95.9445 29.8777 95.1425 30.6447C94.3404 31.4118 93.9402 32.2679 93.9419 33.2132C93.9425 33.5723 94.0281 33.8558 94.1986 34.0634C94.3691 34.271 94.5961 34.3746 94.8797 34.3741C95.1443 34.3736 95.3427 34.2929 95.4747 34.132C95.6068 33.9711 95.7196 33.6448 95.8133 33.1531C96.0194 32.0941 96.2873 31.2949 96.6172 30.7555C96.9471 30.2162 97.5179 29.6244 98.3296 28.9802Z"/>
<path clip-path="url(#TextBounds_2)" d="M126.873 33.6368C127.966 31.5175 128.951 30.0365 129.828 29.1937C130.706 28.3509 131.721 27.9285 132.874 27.9264C134.311 27.9239 135.512 28.4889 136.479 29.6214C137.445 30.754 137.929 32.1615 137.932 33.844C137.934 34.9216 137.714 35.7538 137.27 36.3406C136.827 36.9274 136.199 37.2216 135.386 37.223C134.687 37.2242 134.119 36.9889 133.684 36.5171C133.248 36.0453 133.029 35.4407 133.028 34.7034C133.028 34.3631 133.074 33.985 133.168 33.5689L133.421 32.4909C133.571 31.829 133.646 31.2428 133.645 30.7324C133.644 30.222 133.506 29.8205 133.232 29.528C132.957 29.2354 132.593 29.0896 132.139 29.0904C131.61 29.0913 131.09 29.2954 130.581 29.7028C130.071 30.1102 129.529 30.7633 128.954 31.6623C128.379 32.5613 127.686 33.8149 126.876 35.4233L126.895 46.3689C126.898 47.938 127.179 49.0529 127.738 49.7135C128.297 50.3742 129.323 50.8166 130.817 51.0408L130.818 51.8065L117.774 51.8296L117.773 51.064C119.058 50.8348 119.936 50.3938 120.408 49.7407C120.879 49.0877 121.113 47.9672 121.111 46.3792L121.09 34.4694C121.087 32.8814 120.844 31.7523 120.36 31.0821C119.877 30.4118 119.002 29.9833 117.735 29.7965L117.734 29.1726L126.863 28.1072L126.873 33.6368ZM120.608 50.5769L126.279 50.5668L125.598 50.0576C125.56 50.0199 125.522 49.9916 125.484 49.9727L125.115 49.6898C124.85 49.4256 124.707 49.0667 124.688 48.613L124.687 48.0459L124.686 47.7623L124.653 29.3021L120.004 29.8208L121.111 30.6128C121.13 30.6128 121.168 30.6411 121.225 30.6977L121.594 30.9806C121.783 31.1126 121.906 31.3062 121.963 31.5613C122.021 31.8164 122.05 32.2653 122.051 32.9081L122.077 47.767C122.079 48.542 122.042 49.0242 121.966 49.2134C121.891 49.4025 121.665 49.6581 121.287 49.9802C121.287 49.9802 121.273 49.9897 121.245 50.0086C121.216 50.0276 121.202 50.0465 121.202 50.0654L120.608 50.5769ZM133.784 29.1725C134.22 29.7578 134.438 30.3907 134.44 31.0713C134.441 31.6573 134.338 32.3758 134.131 33.2269C133.944 34.0401 133.85 34.5791 133.851 34.8437C133.852 35.6377 134.174 36.0342 134.817 36.033C135.63 36.0316 136.035 35.2652 136.032 33.734C136.029 31.7868 135.279 30.2663 133.784 29.1725Z"/>
<path clip-path="url(#TextBounds_2)" d="M148.113 29.4023L148.139 44.4313C148.142 45.9059 148.234 47.092 148.415 47.9896C148.596 48.8873 148.881 49.5437 149.269 49.9589C149.657 50.3741 150.173 50.5811 150.816 50.58C151.969 50.578 153.385 49.8949 155.065 48.5308L155.492 49.2106C154.227 50.3093 153.076 51.1053 152.037 51.5987C150.998 52.092 149.93 52.3397 148.834 52.3416C146.716 52.3454 145.104 51.6441 143.995 50.2376C142.887 48.8312 142.33 46.7858 142.325 44.1014L142.299 29.3276L139.69 29.3322L139.689 28.6516C141.107 28.4601 142.344 27.9474 143.401 27.1138C144.458 26.2801 145.312 25.1301 145.961 23.6639C146.611 22.1976 147.076 20.3962 147.355 18.2594L148.064 18.2582L148.083 28.5517L154.293 28.5406L154.294 29.3913L148.113 29.4023ZM145.866 25.7483C145.206 26.8459 144.338 27.7076 143.262 28.3334L143.287 42.7953L143.288 43.4475C143.29 44.525 143.339 45.4749 143.435 46.2971C143.531 47.1192 143.679 47.7759 143.878 48.2671C144.078 48.7582 144.376 49.2398 144.774 49.7117C145.835 50.9386 147.207 51.5505 148.889 51.5476C149.192 51.547 149.456 51.5371 149.683 51.5178C148.851 51.3302 148.203 51.0856 147.739 50.784C147.276 50.4823 146.911 50.0434 146.645 49.4673C146.38 48.8912 146.189 48.1023 146.074 47.1005C145.959 46.0988 145.9 44.8607 145.897 43.3861L145.896 42.5921L145.866 25.7483Z"/>
<path clip-path="url(#TextBounds_2)" d="M177.566 51.7235L157.319 51.7595L157.317 50.5401L171.43 29.2759L168.225 29.2816C165.843 29.2858 163.996 29.8278 162.684 30.9077C161.372 31.9876 160.275 33.8989 159.391 36.6416L158.654 36.6429L160.823 28.5291L178.262 28.4981L178.263 29.122L164.038 50.4715L167.781 50.4648C170.787 50.4595 173.049 49.8411 174.569 48.6096C176.089 47.3781 177.214 45.2777 177.946 42.3084L178.712 42.3071L177.566 51.7235ZM161.457 50.4761L175.485 29.297L172.45 29.3024L158.395 50.4815L161.457 50.4761ZM176.061 50.5352L176.453 47.869C175.869 48.6451 175.345 49.2084 174.883 49.559C174.42 49.9096 173.754 50.2368 172.885 50.5409L176.061 50.5352Z"/>
</g>
</g>
<g id="Layer-4" vectornator:layerName="Layer 4"/>
<g id="Layer-5" vectornator:layerName="Layer 5">
<g opacity="1">
<path d="M114.875 57.7812C108.283 57.7501 101.683 57.8064 95.0938 58C81.9199 58.387 68.7127 59.0787 55.5312 58.625C55.4908 58.6246 55.4691 58.647 55.4688 58.6875C55.4684 58.728 55.4908 58.7496 55.5312 58.75C68.7188 58.5388 81.898 59.4644 95.0625 60.0938C101.647 60.4085 108.252 60.5661 114.844 60.6562C123.515 60.7749 132.203 60.8345 140.875 60.6875C148.858 60.5522 156.831 60.2102 164.812 60.0312C172.791 59.8524 180.771 59.8499 188.75 59.9062C180.771 59.8158 172.786 59.7006 164.812 59.375C156.835 59.0493 148.854 58.5634 140.875 58.2812C132.208 57.9747 123.547 57.8222 114.875 57.7812Z" fill="#3e68ff" stroke="none"/>
</g>
</g>
<clipPath id="ArtboardFrame">
<rect height="79.4755" width="198.653" x="0" y="0"/>
</clipPath>
<g clip-path="url(#ArtboardFrame)" id="Layer-6" vectornator:layerName="Layer 6">
<g fill="#3e68ff" opacity="1" stroke="none">
<path clip-path="url(#TextBounds_3)" d="M207.014 126.349C206.737 126.828 206.144 127.068 205.236 127.068C204.051 127.068 203.357 127.106 203.155 127.181C202.222 127.534 201.138 127.938 199.902 128.392C199.826 130.107 199.789 131.998 199.789 134.066C199.789 138.278 199.927 142.578 200.205 146.966C200.205 147.294 200.337 147.717 200.602 148.234C200.867 148.751 200.999 149.123 200.999 149.35C200.999 149.627 200.886 149.892 200.659 150.144C200.104 150.825 199.272 151.165 198.162 151.165C197.204 151.165 196.289 150.932 195.419 150.466C194.549 149.999 194.051 149.45 193.925 148.82C193.849 148.492 194.045 148.107 194.511 147.666C194.978 147.225 195.211 146.815 195.211 146.437C195.035 141.922 194.946 137.975 194.946 134.596C194.946 132.553 194.984 130.914 195.06 129.678C195.035 129.678 194.682 129.792 194.001 130.019C193.547 130.195 193.181 130.283 192.904 130.283C192.5 130.283 192.134 130.157 191.807 129.905C191 129.275 190.495 128.859 190.293 128.657C189.89 128.253 189.688 127.825 189.688 127.371C189.688 127.219 189.713 127.043 189.764 126.841C189.839 126.513 191.68 125.857 195.287 124.874C199.171 123.815 201.264 123.197 201.567 123.02C201.844 122.919 202.153 122.711 202.493 122.396C202.834 122.081 203.206 121.898 203.609 121.847C204.164 121.797 204.896 122.125 205.803 122.831C206.812 123.638 207.317 124.47 207.317 125.328C207.317 125.681 207.216 126.021 207.014 126.349Z"/>
<path clip-path="url(#TextBounds_3)" d="M217.763 145.983C217.561 146.84 216.88 147.748 215.72 148.706C215.543 148.959 214.85 149.299 213.639 149.728C212.252 150.182 211.054 150.384 210.046 150.333C208.154 150.207 206.666 149.223 205.582 147.382C204.598 145.693 204.106 143.612 204.106 141.141C204.106 138.467 204.661 136.109 205.771 134.066C207.007 131.847 208.659 130.599 210.727 130.321C211.13 130.296 211.521 130.283 211.899 130.283C214.9 130.283 216.552 131.935 216.855 135.239C217.006 136.752 216.338 138.404 214.85 140.195C213.236 142.187 211.168 143.574 208.646 144.356C208.923 145.264 209.138 145.857 209.289 146.134C209.642 146.714 210.121 147.004 210.727 147.004C211.307 147.004 211.924 146.79 212.58 146.361C213.135 146.033 213.513 145.705 213.715 145.377C213.816 145.327 213.917 145.075 214.018 144.621C214.119 144.167 214.383 143.826 214.812 143.599C214.963 143.549 215.14 143.524 215.342 143.524C215.947 143.524 216.533 143.789 217.101 144.318C217.668 144.848 217.889 145.403 217.763 145.983ZM211.824 133.991C210.815 133.991 209.995 134.634 209.365 135.92C208.532 137.635 208.192 139.337 208.343 141.027C209.529 140.699 210.626 139.911 211.634 138.663C212.643 137.414 213.148 136.298 213.148 135.315C213.148 134.432 212.706 133.991 211.824 133.991Z"/>
<path clip-path="url(#TextBounds_3)" d="M237.326 131.797C237.376 132.175 237.124 132.541 236.569 132.894C235.863 133.348 235.434 133.688 235.283 133.915L230.971 140.649L234.602 146.966C234.653 147.042 234.917 147.395 235.397 148.025C235.699 148.429 235.851 148.782 235.851 149.085C235.851 149.261 235.813 149.45 235.737 149.652C235.308 150.611 234.514 151.09 233.354 151.09C232.875 151.09 232.408 151.001 231.954 150.825C231.324 150.573 230.977 150.251 230.914 149.86C230.851 149.469 230.794 149.072 230.744 148.669L228.701 144.129L226.431 148.215C226.28 148.669 226.103 149.116 225.901 149.558C225.7 149.999 225.309 150.22 224.729 150.22C223.997 150.22 223.291 149.993 222.61 149.539C221.879 149.009 221.564 148.429 221.664 147.799C221.715 147.546 221.885 147.282 222.175 147.004C222.465 146.727 222.648 146.512 222.724 146.361L226.053 140.914L223.707 134.331C223.632 134.104 223.386 133.827 222.97 133.499C222.553 133.171 222.32 132.856 222.27 132.553C222.194 132.024 222.547 131.557 223.329 131.154C224.035 130.8 224.792 130.624 225.599 130.624C226.053 130.624 226.406 130.7 226.658 130.851C227.213 131.154 227.553 131.551 227.679 132.043C227.805 132.534 227.919 133.02 228.02 133.499L229.155 136.714L231.651 132.667C231.878 132.238 232.124 131.797 232.389 131.343C232.654 130.889 233.013 130.586 233.467 130.435C233.745 130.334 234.06 130.283 234.413 130.283C235.069 130.283 235.706 130.447 236.323 130.775C236.941 131.103 237.275 131.444 237.326 131.797Z"/>
<path clip-path="url(#TextBounds_3)" d="M253.371 132.629C253.169 132.629 252.854 132.56 252.425 132.421C251.996 132.282 251.668 132.213 251.441 132.213C251.265 132.213 251.088 132.238 250.912 132.288L249.512 132.969L249.512 146.323C249.512 146.752 249.771 147.307 250.288 147.988C250.805 148.669 251.013 149.223 250.912 149.652C250.786 150.131 250.414 150.522 249.796 150.825C249.178 151.128 248.516 151.279 247.81 151.279C246.473 151.279 245.553 150.749 245.048 149.69C244.897 149.362 244.809 148.341 244.783 146.626C244.758 145.491 244.771 143.726 244.821 141.33C244.872 137.446 244.897 135.138 244.897 134.407C244.746 134.457 244.493 134.615 244.14 134.88C243.787 135.145 243.434 135.277 243.081 135.277C242.804 135.277 242.451 135.201 242.022 135.05C240.257 134.52 239.374 133.966 239.374 133.385C239.374 133.259 239.412 133.121 239.487 132.969C239.664 132.591 239.992 132.377 240.471 132.326C241.202 132.251 241.644 132.175 241.795 132.099C242.375 131.898 243.434 131.406 244.973 130.624L245.01 126.084C245.01 125.857 244.941 125.555 244.802 125.176C244.664 124.798 244.594 124.521 244.594 124.344C244.594 124.142 244.657 123.953 244.783 123.777C245.439 122.869 246.322 122.415 247.432 122.415C248.718 122.415 249.626 122.869 250.155 123.777C250.357 124.13 250.458 124.42 250.458 124.647C250.458 124.924 250.307 125.208 250.004 125.498C249.701 125.788 249.55 126.059 249.55 126.311L249.512 129.565C249.966 129.388 250.471 129.086 251.025 128.657C251.454 128.354 251.82 128.203 252.122 128.203C252.249 128.203 252.387 128.215 252.539 128.241C254.127 128.644 254.922 129.514 254.922 130.851C254.922 131.28 254.777 131.683 254.487 132.061C254.197 132.44 253.825 132.629 253.371 132.629Z"/>
</g>
<g fill="#3e68ff" opacity="1" stroke="none">
<path clip-path="url(#TextBounds_4)" d="M142.164 100.71C141.886 101.189 141.294 101.429 140.386 101.429C139.201 101.429 138.507 101.467 138.305 101.543C137.372 101.896 136.288 102.299 135.052 102.753C134.976 104.468 134.938 106.359 134.938 108.428C134.938 112.639 135.077 116.939 135.355 121.327C135.355 121.655 135.487 122.078 135.752 122.595C136.017 123.112 136.149 123.484 136.149 123.711C136.149 123.988 136.035 124.253 135.808 124.505C135.254 125.186 134.421 125.526 133.312 125.526C132.353 125.526 131.439 125.293 130.569 124.827C129.699 124.36 129.201 123.812 129.075 123.181C128.999 122.853 129.195 122.469 129.661 122.027C130.128 121.586 130.361 121.176 130.361 120.798C130.184 116.283 130.096 112.337 130.096 108.957C130.096 106.914 130.134 105.275 130.21 104.039C130.184 104.039 129.831 104.153 129.15 104.38C128.697 104.556 128.331 104.645 128.053 104.645C127.65 104.645 127.284 104.518 126.956 104.266C126.149 103.636 125.645 103.22 125.443 103.018C125.04 102.614 124.838 102.186 124.838 101.732C124.838 101.58 124.863 101.404 124.914 101.202C124.989 100.874 126.83 100.218 130.437 99.2349C134.321 98.1757 136.414 97.5578 136.716 97.3813C136.994 97.2804 137.303 97.0723 137.643 96.7571C137.984 96.4418 138.356 96.259 138.759 96.2086C139.314 96.1581 140.045 96.486 140.953 97.1921C141.962 97.9992 142.466 98.8314 142.466 99.6889C142.466 100.042 142.366 100.382 142.164 100.71Z"/>
<path clip-path="url(#TextBounds_4)" d="M139.213 163.652C139.011 164.51 138.33 165.418 137.17 166.376C136.994 166.628 136.3 166.969 135.09 167.397C133.703 167.851 132.505 168.053 131.496 168.003C129.604 167.877 128.116 166.893 127.032 165.052C126.048 163.362 125.557 161.282 125.557 158.81C125.557 156.137 126.111 153.779 127.221 151.736C128.457 149.517 130.109 148.268 132.177 147.991C132.58 147.966 132.971 147.953 133.35 147.953C136.351 147.953 138.003 149.605 138.305 152.909C138.457 154.422 137.788 156.074 136.3 157.864C134.686 159.857 132.618 161.244 130.096 162.026C130.374 162.934 130.588 163.526 130.739 163.804C131.092 164.384 131.572 164.674 132.177 164.674C132.757 164.674 133.375 164.459 134.03 164.031C134.585 163.703 134.964 163.375 135.165 163.047C135.266 162.997 135.367 162.744 135.468 162.291C135.569 161.837 135.834 161.496 136.262 161.269C136.414 161.219 136.59 161.193 136.792 161.193C137.397 161.193 137.984 161.458 138.551 161.988C139.119 162.517 139.339 163.072 139.213 163.652ZM133.274 151.66C132.265 151.66 131.445 152.304 130.815 153.59C129.983 155.305 129.642 157.007 129.794 158.697C130.979 158.369 132.076 157.581 133.085 156.332C134.094 155.084 134.598 153.968 134.598 152.984C134.598 152.102 134.157 151.66 133.274 151.66Z"/>
<path clip-path="url(#TextBounds_4)" d="M140.121 192.775C140.171 193.153 139.919 193.519 139.364 193.872C138.658 194.326 138.23 194.666 138.078 194.893L133.766 201.627L137.397 207.945C137.448 208.02 137.713 208.373 138.192 209.004C138.494 209.407 138.646 209.76 138.646 210.063C138.646 210.239 138.608 210.429 138.532 210.63C138.103 211.589 137.309 212.068 136.149 212.068C135.67 212.068 135.203 211.98 134.749 211.803C134.119 211.551 133.772 211.229 133.709 210.838C133.646 210.448 133.589 210.05 133.539 209.647L131.496 205.107L129.226 209.193C129.075 209.647 128.898 210.094 128.697 210.536C128.495 210.977 128.104 211.198 127.524 211.198C126.792 211.198 126.086 210.971 125.405 210.517C124.674 209.987 124.359 209.407 124.46 208.777C124.51 208.525 124.68 208.26 124.97 207.982C125.26 207.705 125.443 207.491 125.519 207.339L128.848 201.892L126.502 195.309C126.427 195.082 126.181 194.805 125.765 194.477C125.349 194.149 125.115 193.834 125.065 193.531C124.989 193.002 125.342 192.535 126.124 192.132C126.83 191.779 127.587 191.602 128.394 191.602C128.848 191.602 129.201 191.678 129.453 191.829C130.008 192.132 130.348 192.529 130.475 193.021C130.601 193.513 130.714 193.998 130.815 194.477L131.95 197.693L134.447 193.645C134.674 193.216 134.919 192.775 135.184 192.321C135.449 191.867 135.808 191.564 136.262 191.413C136.54 191.312 136.855 191.262 137.208 191.262C137.864 191.262 138.501 191.426 139.119 191.753C139.736 192.081 140.071 192.422 140.121 192.775Z"/>
<path clip-path="url(#TextBounds_4)" d="M137.776 236.916C137.574 236.916 137.259 236.846 136.83 236.708C136.401 236.569 136.073 236.5 135.846 236.5C135.67 236.5 135.493 236.525 135.317 236.575L133.917 237.256L133.917 250.61C133.917 251.039 134.175 251.594 134.692 252.274C135.21 252.955 135.418 253.51 135.317 253.939C135.191 254.418 134.819 254.809 134.201 255.112C133.583 255.414 132.921 255.566 132.215 255.566C130.878 255.566 129.958 255.036 129.453 253.977C129.302 253.649 129.214 252.628 129.188 250.913C129.163 249.778 129.176 248.012 129.226 245.616C129.277 241.733 129.302 239.425 129.302 238.694C129.15 238.744 128.898 238.902 128.545 239.167C128.192 239.431 127.839 239.564 127.486 239.564C127.209 239.564 126.855 239.488 126.427 239.337C124.661 238.807 123.779 238.252 123.779 237.672C123.779 237.546 123.817 237.407 123.892 237.256C124.069 236.878 124.397 236.663 124.876 236.613C125.607 236.537 126.048 236.462 126.2 236.386C126.78 236.184 127.839 235.693 129.377 234.911L129.415 230.371C129.415 230.144 129.346 229.842 129.207 229.463C129.069 229.085 128.999 228.808 128.999 228.631C128.999 228.429 129.062 228.24 129.188 228.064C129.844 227.156 130.727 226.702 131.836 226.702C133.123 226.702 134.03 227.156 134.56 228.064C134.762 228.417 134.863 228.707 134.863 228.934C134.863 229.211 134.711 229.495 134.409 229.785C134.106 230.075 133.955 230.346 133.955 230.598L133.917 233.851C134.371 233.675 134.875 233.372 135.43 232.944C135.859 232.641 136.225 232.49 136.527 232.49C136.653 232.49 136.792 232.502 136.943 232.527C138.532 232.931 139.327 233.801 139.327 235.138C139.327 235.566 139.182 235.97 138.892 236.348C138.602 236.727 138.23 236.916 137.776 236.916Z"/>
</g>
<g fill="#f8f8f8" opacity="1" stroke="none"/>
</g>
</svg>
